<svg width="216" height="48" viewBox="0 0 216 48" fill="none" xmlns="http://www.w3.org/2000/svg"><path d="M12.5 22.8l.7-.8c-1.1-1.3-2.7-2-4.3-2v1c1.3 0 2.6.6 3.5 1.6l.1.2zm7.5 4.7c-1.2 0-2.3-.5-3.2-1.3l-.6.8c1 1 2.4 1.5 3.8 1.5V30l3.5-2-3.5-2v1.5zm0-6V23l3.5-2-3.5-2v1.5c-1.6 0-3.2.7-4.2 2l-3.4 3.9c-.9 1-2.2 1.6-3.5 1.6v1c1.6 0 3.2-.7 4.2-2l3.4-3.9c.9-1 2.2-1.6 3.5-1.6zM61 18.5l-8 4.619V19h-2v10h2v-4.119l8 4.619v-11zM163 20v4.119l-8-4.619v11l8-4.619V30h2V20h-2zM197.5 21h4.5v1.5l3.5-2-3.5-2V20h-4.5c-2.5 0-4.5 2-4.5 4.5 0 .6.1 1.2.4 1.8l.9-.5c-.2-.4-.3-.8-.3-1.3 0-1.9 1.6-3.5 3.5-3.5zm9.1 1.7l-.9.5c.2.4.3.8.3 1.3 0 1.9-1.6 3.5-3.5 3.5H198v-1.5l-3.5 2 3.5 2V29h4.5c2.5 0 4.5-2 4.5-4.5 0-.6-.1-1.2-.4-1.8z" fill="#fff"></path><circle cx="108" cy="24" r="20" fill="#fff"></circle><path d="M100 16h16v16h-16V16z" fill="#fff"></path><path d="M104.018 30l10.392-6-10.392-6v12z" fill="#000"></path></svg>